<svg width="200" height="200" viewBox="0 0 100 100" xmlns="http://www.w3.org/2000/svg">
  <!-- 요청하신 안전 금고 아이콘 SVG 입니다. -->
  
  <!-- 배경: 둥근 파란색 사각형 -->
  <rect width="100" height="100" rx="20" fill="#1DA1F2"/>

  <!-- 금고 아이콘 그룹 (흰색 선으로 그림) -->
  <g fill="none" stroke="white" stroke-linecap="round" stroke-linejoin="round">
    <g stroke-width="4">
      <!-- 금고 몸체 (문) -->
      <path d="M25 20 H 75 A 5 5 0 0 1 80 25 V 75 A 5 5 0 0 1 75 80 H 25 A 5 5 0 0 1 20 75 V 25 A 5 5 0 0 1 25 20 Z"/>
      
      <!-- 경첩 -->
      <path d="M80 30 L 85 30"/>
      <path d="M80 65 L 85 65"/>

      <!-- 다리 -->
      <path d="M30 80 L 30 85"/>
      <path d="M70 80 L 70 85"/>
    </g>
      <!-- 다이얼 -->
      <circle cx="50" cy="50" r="12"/>
  </g>

  <!-- T 글자에 고리가 감싸는 아이콘 -->
  
  <!-- 고리의 뒷부분 -->
  
  <!-- 달러 기호 -->
  <text x="50" y="58" font-family="Arial, sans-serif" font-size="22" font-weight="bold" fill="white" text-anchor="middle">T</text>
</svg>
